<?xml version="1.0" encoding="UTF-8"?>
<svg version="1.1" viewBox="0 0 1600 1200" width="512" height="512" xmlns="http://www.w3.org/2000/svg">
<path transform="translate(546,156)" d="m0 0 5 2 1 5v17l18-14 12-6 3 3-1 8-6 11-6 8-6 7-9 6-12 5-11 8-11 14-9 15 4-1 25-12 13-5 9-1 10 2 5 5-6 7-18 10-13 5-4 1h-19l-11-1-6 8-11 23-5 13v2l11-6 11-8 12-7 14-5 8-1 6 3 2 5-6 8-12 11-13 10-11 4-22 2-7 3-4 12-3 12v3l17-9 6-2h12l6 4 5 6 4 9 2 7-1 7-5 9-5-5-12-14-9-7-3-1h-9l-7 4-4 5-2 5-4 42-1 13 5-2 2-4 13-12 13-9 20-11 4-1 5 5-2 7-10 11-9 11-11 12-13 7-16 2v14l4 37 1 4 7-14 9-12 9-9 10-14 8-8 3-2h5l5 4-1 8-8 21-4 8-6 5-21 11-12 11v8l6 25 4 11 2 4h2l7-29 8-16 8-11 12-11 7-1 3 2 1 3v7l-6 22-5 9-9 9-16 12-5 6-2 7 3 11 7 17 5 11 3-1 7-14 10-25 6-9 5-3 5 1 4 5-1 13-3 14-5 13-1 2 13 2 8 7 4 10v10l-4 4h-5l-7-7-4-5-9-5-9-1-8 2 3 7 8 12 10 13 13 14 7 8 4 5-4 1-16-16-9-11-14-19-13-20-4-7-3-1-2 5-3 8-3 10-5 8-10 6-7 3h-10l-3-3-1-8 3-7 7-8 12-14 8-6 4-2 8-1-6-15-9-21-5-6-3-2-6 1-6 8-9 16-5 5h-6l-6-7-1-3v-15l5-13 9-8h2v-2l-6-2-11-6-5-5-6-8-3-8v-7l4-4h6l15 11 14 9 11 9 1-1-5-22-4-8-8-7-13-8-16-8-6-4-7-7-8-14-2-5v-7l3-4 9 1 16 5 8 6 8 11 8 12 8 10-1-31-1-17-3-11-7-9-8-4h-10l-9 3-7 5-5 2-9-1-3-4 1-9 4-6 7-5 7-2 11 1 9 4 9 6 11 11 2 3 2-13v-11l-18-11-10-9-10-16-6-13 1-5 4-2 4 2h4l-3-11v-13l3-3 7 1 6 5 7 14 13 37v2l3-2 4-12v-18l-4-13-6-8-21-21-7-10-2-4v-5l2-2 7 1 9 7 8 8 11 14 7 12 3 11 9-20v-8l-8-19-5-15-1-4v-18l5-12 4-3 5 1 4 5 7 19 2 15v10l4-5 13-23 1-2 1-11v-11l-5-3-8-2-12-2-3-4 1-7 8-7 2-1h13l6 4 6 7 4 13-1 10 4-14 2-14 1-13 4-14 5-5zm0 4-3 4-2 10 2 2 4-8 1-8zm33 6-3 4-4 7-9 11-10 10v2l4-2 6-4 7-7 7-11 4-8v-2zm-72 32m3 1 4 3h2l2 4 2-2-4-4zm42 1m-72 17-3 5-1 6v19l2 4 2-1-1-19-1-8h2l7 24 3 10 2 1-1-13-5-18-5-10zm78 14-12 4-9 5 4 1 21-6 5-1-13 8-8 4 3 1 19-9 5-5-6-2zm-15 16-2 2 5-1zm-5 2m-105 15 5 9 9 11 11 9 5 4-2-5-12-16-9-9-4-3zm103 16-17 6-8 5-3 4 6 1-4 4-12 7-6 3 3 1 9-2 11-1 9-5 10-9 8-7 4-6-5-1-1 4-5 3-5 2 5-5 5-2v-2zm-29 15m-77 3-1 5 3 14h3l3-5 4 1-2-6-4-6-3-3zm12 16 1 2zm1 2 1 3zm-22 9 1 5 6 8 1-4-5-8zm71 18-3 2 16 8-2-4-6-5zm19 3 3 5 2 1-2-5zm-69 5m74 1m-72 1m1 1m1 1 2 4 6 5-2-4-4-5zm8 9 1 3 1-3zm-42 16m-3 1-4 3v2h-2l-1 5 10-10zm12 4-9 4-8 4 1 4 12-7 8-4zm98 2-6 5-7 1-15 10-3 4 5-2 5-4 13-6-7 8-11 7-11 9-9 10 2 1 10-3 6-4 7-7 10-13 1-3h2l9-11 1-2zm-32 20m-83 16 1 9 7 14 9 8 10 5 9 2-6-9-9-10-5-7 7 6 10 9 8 5-1-5-8-13-6-7-5-3-15-3zm114 13-13 11-8 11-1 4 3 1-2 5-8 11 2 1 11-5 6-4 5-8 3-9 2-9 2-5v-4zm8 49-11 8-9 11-6 13v5l3-1 7-10 9-12-6 12-8 13-2 5v3l4-1 5-4v-2l4-2 7-11 4-14 1-12zm-103 3-1 1v9l3 6 7 8 10 5 11 3v-3l-14-11-2-2 14 7 7 5h2l-1-4-7-6-14-9-13-9zm23 43-7 8-3 9v12l5 8h3l12-20 7-9v-4l-5-1-8 7-5 9-1 12-2-1v-13l5-9 5-6v-2zm91 17-6 7-8 18-3 9 1 3 5-8 6-9-1 8-5 10-4 6h6l6-10 3-10 2-11v-8l1-4zm-18 37m-39 10-12 13-9 11-2 3 1 8 3 1 5-2v-1l-7-2 2-4 8-7 8-13 4-5zm6 4-4 6 1 5 2-3 2-4zm45 2 4 3 9 6 11 12 1-4-6-7-14-10zm-48 10-6 9-1 3-9 3-1 2 9-2 8-9 1-6z" fill="#000"/>
<path transform="translate(899,324)" d="m0 0h2l4 13 8 7 9 4 5 2v2l-13 4-6 5-5 10-2 6-3-1-4-12-4-5v-2l-4-1h-82l-22 4-14 4-15 6-17 9-11 9-9 9-11 15-10 19-7 21-4 17-3 24v36l4 27 6 22 6 16 8 15 10 13 12 13 14 11 13 8 18 8 21 6 12 2 11 1h29l18-3 21-6 14-6 15-9 9-7 7-6 6-8-2-15 2-8 4-8 4-4h2l1 2 1 20 10-7 1-4v-7l3-10 9-10 4-1 1 4-2 11-3 7h9l4 4 10 5-5 5-6 3h-13l-10-3-10 9h17l7 1 1 2-5 5-6 4-9 2-15-1-14 15-8 7-14 9-16 8-17 6-15 4-19 3h-42l-16-2-21-5-18-7-20-11-14-10-13-11-10-10-12-16-10-17-8-18-5-17-3-14-1-10v-41l3-21 4-17 7-19 12-23 10-13 6-7 8-7 13-11 21-12 21-9 16-5 20-3 16-2 83-1 8-3 4-6 3-11z" fill="#000"/>
<path transform="translate(808,360)" d="m0 0h3l1 208 2 12 4 10 9 10 15 8v2l-75 1h-31v-3l14-7 7-6 7-14 2-8 1-21 1-182 9-4 20-5z" fill="#000"/>
<path transform="translate(953,170)" d="m0 0h2l4 12 4 6 6 4 9 4v2l-12 5-6 7-5 12-2-1-7-14-6-5-3-1h-92l-13 2-8 5-5 6-4 8-2 7-1 9-1 103-3 1-32 3-9 1-1-114-2-9-6-12-4-5-8-5-11-4v-4l205-2 8-7 3-6z" fill="#000"/>
<path transform="translate(801,61)" d="m0 0h45l31 3 22 4 29 7 26 9 24 10 20 10 20 12 20 14 13 10 13 11 10 9 18 18 7 8 11 13 14 19 11 17 11 19 8 16 9 21 8 23 7 24 6 29 3 26 1 21v19l-2 33-4 27-5 23-8 27-11 28-8 16-12 23-18 27-9 12-12 14-9 11-20 20-11 9-13 11-18 13-18 11-19 11-31 14-22 8-28 8-17 4-27 4-28 2h-32l-33-3-29-5-28-7-28-10-25-11-22-12-19-12-17-12-11-9-14-12-8-7-7-7-1-3 3-3 5 6 8 7 15 13 14 11 19 13 14 9 24 13 25 11 22 8 21 6 34 7 25 3 14 1h36l32-3 26-5 27-7 26-9 23-10 22-11 21-13 17-12 16-13 11-9 7-7 8-7 13-14 9-11 8-10 12-17 11-18 10-18 13-27 9-25 5-16 6-25 4-26 2-25v-48l-4-33-6-29-7-25-8-21-9-20-8-16-11-19-12-18-12-16-11-13-9-10-17-17-11-9-13-11-18-13-16-10-16-9-16-8-15-7-24-9-23-7-27-6-27-4-23-1h-25l-26 1-24 3-28 6-21 6-25 9-24 11-21 11-22 14-12 9-5 2-1-4 13-10 32-20 29-15 20-8 29-9 36-8 25-3z" fill="#000"/>
<path transform="translate(801,85)" d="m0 0h46l26 3 23 4 23 6 29 10 18 8 16 8 20 11 19 13 13 10 11 9 7 7 8 7 8 8v2l4 2 7 8 8 9 10 13 13 18 11 18 9 17 12 29 9 27 7 28 4 26 1 10v58l-4 30-6 26-7 24-8 21-8 18-12 22-14 22-10 14-13 16-9 10-24 24-11 9-20 15-19 12-18 10-25 12-30 11-22 6-26 5-14 2-26 2h-27l-34-3-23-4-24-6-30-10-20-9-16-8-16-9-22-15-12-9-11-9-12-11-14-14-1-5 5 2 12 12 8 7 14 12 16 12 15 10 21 12 22 11 28 11 19 6 36 8 25 3 14 1h28l32-3 26-5 27-7 28-10 22-10 22-12 24-16 14-11 11-9 17-16 10-10 9-11 12-15 13-19 10-17 12-23 8-19 8-22 7-27 5-27 2-19 1-30-1-25-3-25-6-29-7-24-13-33-12-24-14-23-13-18-9-11-11-12-12-13-10-9-14-12-19-14-19-12-16-9-25-12-24-9-23-7-30-6-23-3-37-1-24 1-30 4-28 6-24 7-22 9-21 10-22 13-27 18h-2l1-4 5-5 11-8 17-11 29-15 21-9 22-8 27-7 21-4z" fill="#000"/>
<path transform="translate(1347,871)" d="m0 0h21l2 1v57h60v-58h19l4 1v113l-4 1h-16l-2-1-1-23v-28h-61l1 50-1 1-9 1h-10l-3-2z" fill="#000"/>
<path transform="translate(503,871)" d="m0 0h60l15 3 12 6 9 9 4 8 2 9-1 10-6 12-8 8-8 4h-2l5 5 8 7 9 10 8 11 8 9 5 5-1 1-10 1h-10l-8-3-7-7-10-18-7-11-6-5-16-1h-22v41l-2 1h-15l-6-2zm26 4-3 2-1 3v59l2 1h25l13-2 8-4 7-9 4-13v-8l-3-10-7-10-5-4-10-4-5-1z" fill="#000"/>
<path transform="translate(1012,871)" d="m0 0h55l15 2 14 7 9 9 5 10 1 5v8l-3 9-6 10-9 7-5 2v2l11 9 9 10 10 14 6 7 5 5-9 2h-10l-11-4-8-10-12-22-5-6-3-2-8-1h-31v41l-2 1h-20l-1-1v-113zm25 4-4 2-2 9v53l2 1h29l10-2 9-6 6-7 3-8v-18l-6-12-9-8-9-3-5-1z" fill="#000"/>
<path transform="translate(407,868)" d="m0 0h24l16 4 14 7 12 11 7 11 5 12 2 7v22l-4 13-6 10-10 10-11 7-14 5-6 1h-25l-16-4-10-4-8-6-6-5-9-13-5-12-2-7-1-16 3-15 6-12 9-10 7-6 14-7zm7 3-11 2-9 5-7 6-6 9-5 14-1 15 2 15 5 15 7 12 8 9 8 6 11 5 6 1h9l11-2 9-5 8-9 5-12 3-16v-11l-3-17-5-13-7-11-10-10-10-5-6-2z" fill="#000"/>
<path transform="translate(1277,870)" d="m0 0h24l12 3 10 6 7 7 2 4v3l-4-2-5-5-8-6-11-4-6-1h-13l-9 2-9 6-4 5-2 9 3 8 5 5 10 6 29 11 12 6 8 6 6 7 2 6v9l-5 10-7 7-12 6-13 3h-24l-12-3-10-5-8-7-6-10-1-5 3 1 7 10 9 7 12 5 18 2 11-2 8-5 4-5 2-8-3-9-7-6-16-8-20-8-11-5-6-4-5-4-5-10v-9l3-8 5-7 10-7 11-5z" fill="#000"/>
<path transform="translate(684,870)" d="m0 0 5 1 7 14 12 29 10 24 15 34 5 10v4h-24l-5-10-10-25-2-3h-40l-3 3-12 28-4 7h-3l1-6 8-21 11-27 11-28 10-25 3-7zm-9 26-9 21-9 24v2l38 1-1-6-15-37-3-5z" fill="#000"/>
<path transform="translate(931,870)" d="m0 0h28l12 3 12 6 8 7 6 9 1 3h-15l-6-10-6-7-9-5-4-1h-23l-11 4-8 6-8 9-4 8-3 12v17l4 15 7 13 4 5 13 9 10 4 15 2 14-1 11-4 9-7 8-10h2l-1 5-6 8-9 8-12 6-15 3h-19l-14-3-14-6-11-8-7-7-6-10-4-10-1-4v-19l3-12 7-13 11-12 14-8 12-4z" fill="#000"/>
<path transform="translate(1130,871)" d="m0 0h21l1 1v80l3 14 4 6 8 6 9 3h22l11-4 5-5 5-8 2-9 1-83 5-1 1 1v75l-2 15-4 9-8 9-9 5-10 2h-22l-16-3-10-4-9-7-6-9-2-8z" fill="#000"/>
<path transform="translate(199,871)" d="m0 0h81v4l-58 1v57h14l25 1 1 4-16 1h-25v46l-1 1h-17l-4-2z" fill="#000"/>
<path transform="translate(293,871)" d="m0 0h22l1 1-1 109h54l8 1v3l-5 1-18 1h-15l-35-1-10-1-1-3-1-110z" fill="#000"/>
<path transform="translate(751,871)" d="m0 0h20l1 1 1 109 61 1v4l-35 1-49-1-1-1 1-113z" fill="#000"/>
<path transform="translate(413,1052)" d="m0 0h42l8 2 6 4 5 10v8l-3 7-4 6 7 7 4 8v9l-4 7-7 6-6 2-9 1h-37l-2-2zm11 7-2 1v27l1 1h13l16-1 7-3 5-6v-9l-4-6-8-3zm-2 35v27l1 1h33l7-3 4-4 1-2v-11l-4-5-4-2-8-1z" fill="#000"/>
<path transform="translate(1083,1052)" d="m0 0h33l11 3 8 6 5 10 1 10-3 10-7 8-6 4-10 2h-26l-1 24-4 1-4-1-1-37v-37l1-2zm6 9-1 1v34l2 1h25l8-3 5-5 2-3v-14l-3-6-6-4-3-1z" fill="#000"/>
<path transform="translate(511,1052)" d="m0 0h52l1 1v6l-1 1-43 1v26h31l8 1v5l-1 1h-38v27h27l18 1 1 1v6h-55l-1-4v-64z" fill="#000"/>
<path transform="translate(1194,1051)" d="m0 0 5 1 8 15 13 28 11 25 3 9-1 1h-5l-5-6-8-15-40-1-2 6-8 15-7 1-1-3 11-25 13-28 7-16zm1 13-6 12-9 21-2 5 11 1 23-1-3-10-9-21-4-7z" fill="#000"/>
<path transform="translate(1014,1051)" d="m0 0h11l13 3 5 4v5l-4 1-13-3-10-1-9 3-5 5-1 4 2 6 4 4 12 4 15 4 9 6 4 6 1 9-3 8-8 7-7 3-6 1h-10l-14-3-6-3-4-5 1-4h4l10 4 8 2h14l8-4 3-7-2-7-10-5-21-6-8-5-5-8v-12l3-6 8-7 5-2z" fill="#000"/>
<path transform="translate(690,1053)" d="m0 0h9l1 52 3 8 5 5 8 3h11l9-3 5-5 2-6 2-54h8l1 1v51l-3 9-4 6-9 7-8 2h-17l-9-3-8-7-5-11-1-4z" fill="#000"/>
<path transform="translate(624,1052)" d="m0 0h6l8 16 12 26 14 32v4h-5l-6-7-6-12v-2h-41l-8 15-3 5-5 1-2-3 11-25 15-34 7-13zm1 13-8 16-8 18v3h33l-2-9-9-21-4-7z" fill="#000"/>
<path transform="translate(780,1052)" d="m0 0h61l2 2-1 5-26 2-1 68-5 1-4-2-1-67-22-1-4-1-1-4z" fill="#000"/>
<path transform="translate(857,1052)" d="m0 0h8l4 5 12 20 9 14 3 1 2-5 7-10 11-18 5-6 6-1-1 6-13 22-10 16-3 5-1 7-1 20-1 2-6-1-1-2-1-22-3-8-17-28-9-14z" fill="#000"/>
<path transform="translate(487,595)" d="m0 0h2l1 2h3v2l-3 1-6 18-6 7-2-1 6-7v-2l-6 8-10 5h-6l-2-3 5-5 7-8 2-2h2l6-5 5-7h2zm-1 4-4 6 1 5 2-3 2-4z" fill="#000"/>
<path transform="translate(502,338)" d="m0 0 9 3 6 8 4 11v11 3l-2 1-11-14-9-10h3 2l-7-6-5-2v-1l7 1 7 6 6 8 3 3-6-11-7-8zm9 8 3 5 2 1-2-5z" fill="#000"/>
<path transform="translate(1e3 583)" d="m0 0 13 1v4l-11 8-2 1h-14l-9-1 3-3 15-9z" fill="#000"/>
<path transform="translate(502,186)" d="m0 0 5 2 1-2 6 5v3h2l7 14-1 3-9-7-9-3-11-2-2-1 2-5zm5 12m3 1 4 3h2l2 4 2-2-4-4z" fill="#000"/>
<path transform="translate(438,311)" d="m0 0h4l3 4 6 21 4 11v6h-2l-6-9v-8h-2l-3-9h-3l-4-1-3-9h2zm4 3 1 2zm1 2 1 3z" fill="#000"/>
<path transform="translate(425,327)" d="m0 0 6 4 8 10 6 8 5 6-1 2-3-2 7 8v3l-5-4v-2l-4-2-1-3-4-2-2-3h-3l-5-5-8-14 1-2 6 7-2-6z" fill="#000"/>
<path transform="translate(480,222)" d="m0 0 2 3 3 12 6 20 2 2-1 4h-2l-1 3-7-29-1-2 2 13 2 10v6h-3l-4-8-1-6h2l-1-27z" fill="#000"/>
<path transform="translate(411,379)" d="m0 0h6l2 1v2l12 2 1 3-13 4-6 3-2-1 7-5 5-2-9 3-7 4h-3v4l-5-2v-6l5-6 2 1-1 2h-2v4l6-7 2-1-2-2z" fill="#000"/>
<path transform="translate(574,168)" d="m0 0h3l-2 6-10 13-5 4 2-5-4 2-3 1 2-5 7-8z" fill="#000"/>
<path transform="translate(542,164)" d="m0 0 1 3-1 7 1 1 4-10 2 3-1 9-2 9-8 1v-12l3-10z" fill="#000"/>
<path transform="translate(566,229)" d="m0 0 6 1 5 3-4 4-19 10-16 6-10 1 3-5 10-1 5-1 12-5 13-7 1-2-13-2v-1z" fill="#000"/>
<path transform="translate(530,600)" d="m0 0h11l10 5 3 3 1 8-8-6-11-8h-6z" fill="#000"/>
<path transform="translate(514,388)" d="m0 0 4 1-5 4-7 1-15 10-3 4-3 3h-6l5-5 12-9 9-5z" fill="#000"/>
<path transform="translate(510,394)" d="m0 0 2 1-8 9-8 5h-2l2-7 8-5z" fill="#000"/>
<path transform="translate(481,213)" d="m0 0 2 3 3 8-1 3-4-9-3 4-1 6-1 19h-1l-1-10v-11l4-10z" fill="#000"/>
<path transform="translate(615,136)" d="m0 0 4 1v6l5-1v-2l3 1-6 7-4-1-2-2z" fill="#000"/>
<path transform="translate(491,472)" d="m0 0 3 1-4 6 5-1-3 3-5 3h-3v-5l5-6z" fill="#000"/>
<path transform="translate(478,421)" d="m0 0 2 1-6 7 9-1-5 4-1 1h-5l-2-6 5-4z" fill="#000"/>
<path transform="translate(504,308)" d="m0 0h10l-4 3-5 1h-15l1-3 4 1z" fill="#000"/>
<path transform="translate(479,303)" d="m0 0 1 4-4 10-4-1v-11l3 6z" fill="#000"/>
<path transform="translate(538,278)" d="m0 0 5 1-2 1 1 3-4 4-5 2h-3l2-4 6-3h2v-2l-3-1z" fill="#000"/>
<path transform="translate(539,548)" d="m0 0h2v11l-4 17-1-4 2-11v-8z" fill="#000"/>
<path transform="translate(444,450)" d="m0 0 4 4 2 5-2 3-8-8v-2l4 2z" fill="#000"/>
<path transform="translate(451,454)" d="m0 0 9 9 1 3-2 4-3-3-4-10z" fill="#000"/>
<path transform="translate(535,240)" d="m0 0h10l-3 3-12 3v-3z" fill="#000"/>
<path transform="translate(456,622)" d="m0 0h1l2 8 10-3 3 1-9 4h-5l-3-3z" fill="#000"/>
<path transform="translate(555,239)" d="m0 0 4 1-16 8-2-1 4-4 9-3z" fill="#000"/>
<path transform="translate(444,550)" d="m0 0h1v10l-1 2-3-1v-10z" fill="#000"/>
<path transform="translate(453,289)" d="m0 0 4 2 5 5h3v2h2l1 5-8-6-7-7z" fill="#000"/>
<path transform="translate(519,389)" d="m0 0 1 3-14 15v-3l3-4h2l2-4z" fill="#000"/>
<path transform="translate(522,574)" d="m0 0 1 3-2 5v6l-4 4-1-3z" fill="#000"/>
<path transform="translate(484,592)" d="m0 0 1 2-10 13-1-2 6-8 2-4z" fill="#000"/>
<path transform="translate(521,592)" d="m0 0h7l-5 5h-4z" fill="#000"/>
<path transform="translate(503,527)" d="m0 0 1 2-1 3 2 1-3 3h-2l-1-4z" fill="#000"/>
<path transform="translate(535,557)" d="m0 0 1 3-1 3h-2z" fill="#000"/>
<path transform="translate(611,144)" d="m0 0 2 2-1 3z" fill="#000"/>
<path transform="translate(528,289)" d="m0 0 2 1h-3z" fill="#000"/>
<path transform="translate(619,134)" d="m0 0h2l-1 2z" fill="#000"/>
<path transform="translate(536,555)" d="m0 0" fill="#000"/>
<path transform="translate(525,291)" d="m0 0 2 1z" fill="#000"/>
<path transform="translate(612,139)" d="m0 0" fill="#000"/>
<path transform="translate(631,136)" d="m0 0 2 1z" fill="#000"/>
<path transform="translate(640,131)" d="m0 0 2 1z" fill="#000"/>
<path transform="translate(433,501)" d="m0 0" fill="#000"/>
<path transform="translate(524,292)" d="m0 0" fill="#000"/>
<path transform="translate(614,150)" d="m0 0" fill="#000"/>
<path transform="translate(627,139)" d="m0 0" fill="#000"/>
<path transform="translate(628,138)" d="m0 0" fill="#000"/>
<path transform="translate(639,132)" d="m0 0" fill="#000"/>
</svg>
